<svg xmlns="http://www.w3.org/2000/svg" xmlns:xlink="http://www.w3.org/1999/xlink" width="2000" zoomAndPan="magnify" viewBox="0 0 1500 449.999984" height="600" preserveAspectRatio="xMidYMid meet" version="1.0"><defs><g/><clipPath id="faf0f53d44"><path d="M 22.0625 383 L 450.3125 383 L 450.3125 405 L 22.0625 405 Z M 22.0625 383 " clip-rule="nonzero"/></clipPath></defs><path fill="#000000" d="M 73.191406 159.25 L 133.527344 159.25 L 133.527344 167.15625 L 73.191406 167.15625 Z M 73.191406 159.25 " fill-opacity="1" fill-rule="nonzero"/><path fill="#000000" d="M 122.855469 140.058594 L 362.195312 140.058594 L 242.515625 62.933594 Z M 242.921875 68.308594 L 347.550781 135.757812 L 137.5 135.757812 L 242.535156 68.066406 Z M 242.921875 68.308594 " fill-opacity="1" fill-rule="nonzero"/><path fill="#000000" d="M 242.921875 45.238281 L 242.535156 45 L 71.695312 155.132812 L 413.355469 155.132812 Z M 365.335938 141.90625 L 119.714844 141.90625 C 119.308594 141.90625 118.9375 141.628906 118.828125 141.242188 C 118.714844 140.855469 118.863281 140.429688 119.214844 140.207031 L 241.996094 61.066406 C 242.292969 60.863281 242.679688 60.863281 242.996094 61.066406 L 246.210938 63.117188 L 365.816406 140.226562 C 366.164062 140.449219 366.3125 140.875 366.203125 141.261719 C 366.09375 141.628906 365.742188 141.90625 365.335938 141.90625 Z M 365.335938 141.90625 " fill-opacity="1" fill-rule="nonzero"/><path fill="#000000" d="M 351.980469 159.25 L 412.320312 159.25 L 412.320312 167.15625 L 351.980469 167.15625 Z M 351.980469 159.25 " fill-opacity="1" fill-rule="nonzero"/><path fill="#000000" d="M 262.589844 159.25 L 322.929688 159.25 L 322.929688 167.15625 L 262.589844 167.15625 Z M 262.589844 159.25 " fill-opacity="1" fill-rule="nonzero"/><path fill="#000000" d="M 161.582031 159.25 L 221.921875 159.25 L 221.921875 167.15625 L 161.582031 167.15625 Z M 161.582031 159.25 " fill-opacity="1" fill-rule="nonzero"/><path fill="#000000" d="M 359.257812 169 L 405.042969 169 L 405.042969 177.757812 L 359.257812 177.757812 Z M 359.257812 169 " fill-opacity="1" fill-rule="nonzero"/><path fill="#000000" d="M 276.664062 182.242188 L 276.664062 301.425781 L 308.855469 301.425781 L 308.855469 182.242188 Z M 284.679688 297.898438 L 282.832031 297.898438 L 282.832031 185.21875 L 284.679688 185.21875 Z M 293.691406 297.898438 L 291.847656 297.898438 L 291.847656 185.21875 L 293.691406 185.21875 Z M 302.6875 297.898438 L 300.839844 297.898438 L 300.839844 185.21875 L 302.6875 185.21875 Z M 302.6875 297.898438 " fill-opacity="1" fill-rule="nonzero"/><path fill="#000000" d="M 269.867188 315.554688 L 262.589844 315.554688 L 262.589844 324.917969 L 322.929688 324.917969 L 322.929688 315.554688 L 315.652344 315.554688 L 315.652344 306.394531 L 269.867188 306.394531 Z M 269.867188 315.554688 " fill-opacity="1" fill-rule="nonzero"/><path fill="#000000" d="M 40.058594 356.039062 L 432.65625 356.039062 L 432.65625 377.941406 L 40.058594 377.941406 Z M 40.058594 356.039062 " fill-opacity="1" fill-rule="nonzero"/><path fill="#000000" d="M 366.035156 182.242188 L 366.035156 301.425781 L 398.226562 301.425781 L 398.226562 182.242188 Z M 374.050781 297.898438 L 372.207031 297.898438 L 372.207031 185.21875 L 374.050781 185.21875 Z M 383.066406 297.898438 L 381.21875 297.898438 L 381.21875 185.21875 L 383.066406 185.21875 Z M 392.058594 297.898438 L 390.210938 297.898438 L 390.210938 185.21875 L 392.058594 185.21875 Z M 392.058594 297.898438 " fill-opacity="1" fill-rule="nonzero"/><path fill="#000000" d="M 359.257812 315.554688 L 351.980469 315.554688 L 351.980469 324.917969 L 412.320312 324.917969 L 412.320312 315.554688 L 405.023438 315.554688 L 405.023438 306.394531 L 359.257812 306.394531 Z M 359.257812 315.554688 " fill-opacity="1" fill-rule="nonzero"/><path fill="#000000" d="M 168.859375 169 L 214.644531 169 L 214.644531 177.757812 L 168.859375 177.757812 Z M 168.859375 169 " fill-opacity="1" fill-rule="nonzero"/><path fill="#000000" d="M 269.867188 169 L 315.652344 169 L 315.652344 177.757812 L 269.867188 177.757812 Z M 269.867188 169 " fill-opacity="1" fill-rule="nonzero"/><path fill="#000000" d="M 87.265625 182.242188 L 87.265625 301.425781 L 119.457031 301.425781 L 119.457031 182.242188 Z M 95.28125 297.898438 L 93.433594 297.898438 L 93.433594 185.21875 L 95.28125 185.21875 Z M 104.273438 297.898438 L 102.425781 297.898438 L 102.425781 185.21875 L 104.273438 185.21875 Z M 113.285156 297.898438 L 111.441406 297.898438 L 111.441406 185.21875 L 113.285156 185.21875 Z M 113.285156 297.898438 " fill-opacity="1" fill-rule="nonzero"/><g clip-path="url(#faf0f53d44)"><path fill="#000000" d="M 22.53125 383.09375 L 450.164062 383.09375 L 450.164062 405 L 22.53125 405 Z M 22.53125 383.09375 " fill-opacity="1" fill-rule="nonzero"/></g><path fill="#000000" d="M 168.859375 315.554688 L 161.582031 315.554688 L 161.582031 324.917969 L 221.921875 324.917969 L 221.921875 315.554688 L 214.644531 315.554688 L 214.644531 306.394531 L 168.859375 306.394531 Z M 168.859375 315.554688 " fill-opacity="1" fill-rule="nonzero"/><path fill="#000000" d="M 58.65625 329.628906 L 416.179688 329.628906 L 416.179688 351.53125 L 58.65625 351.53125 Z M 58.65625 329.628906 " fill-opacity="1" fill-rule="nonzero"/><path fill="#000000" d="M 80.46875 169 L 126.234375 169 L 126.234375 177.757812 L 80.46875 177.757812 Z M 80.46875 169 " fill-opacity="1" fill-rule="nonzero"/><path fill="#000000" d="M 175.65625 182.242188 L 175.65625 301.425781 L 207.847656 301.425781 L 207.847656 182.242188 Z M 183.671875 297.898438 L 181.824219 297.898438 L 181.824219 185.21875 L 183.671875 185.21875 Z M 192.667969 297.898438 L 190.820312 297.898438 L 190.820312 185.21875 L 192.667969 185.21875 Z M 201.679688 297.898438 L 199.832031 297.898438 L 199.832031 185.21875 L 201.679688 185.21875 Z M 201.679688 297.898438 " fill-opacity="1" fill-rule="nonzero"/><path fill="#000000" d="M 80.46875 315.554688 L 73.191406 315.554688 L 73.191406 324.917969 L 133.527344 324.917969 L 133.527344 315.554688 L 126.253906 315.554688 L 126.253906 306.394531 L 80.46875 306.394531 Z M 80.46875 315.554688 " fill-opacity="1" fill-rule="nonzero"/><g fill="#000000" fill-opacity="1"><g transform="translate(516.720994, 259.198132)"><g><path d="M 8.328125 -1.140625 C 10.296875 -1.140625 11.984375 -1.84375 13.390625 -3.25 C 14.796875 -4.65625 15.539062 -6.347656 15.625 -8.328125 L 15.625 -71.484375 C 15.539062 -73.453125 14.796875 -75.140625 13.390625 -76.546875 C 11.984375 -77.953125 10.296875 -78.65625 8.328125 -78.65625 L 6.84375 -78.65625 L 6.84375 -79.796875 L 31.8125 -79.796875 L 31.8125 -78.65625 L 30.328125 -78.65625 C 27.585938 -78.65625 25.492188 -77.476562 24.046875 -75.125 C 23.367188 -73.988281 23.03125 -72.773438 23.03125 -71.484375 L 23.03125 -3.53125 L 39.328125 -3.53125 C 44.953125 -3.53125 49.242188 -4.785156 52.203125 -7.296875 C 55.171875 -9.804688 57.644531 -13.53125 59.625 -18.46875 L 60.765625 -18.46875 L 54.15625 0 L 6.84375 0 L 6.84375 -1.140625 Z M 8.328125 -1.140625 "/></g></g></g><g fill="#000000" fill-opacity="1"><g transform="translate(580.78549, 259.198132)"><g><path d="M 81.625 -1.140625 L 82.53125 -1.140625 L 82.53125 0 L 56.875 0 L 56.875 -1.140625 L 57.90625 -1.140625 C 59.5 -1.140625 60.695312 -1.648438 61.5 -2.671875 C 62.300781 -3.703125 62.703125 -4.671875 62.703125 -5.578125 C 62.703125 -6.492188 62.546875 -7.410156 62.234375 -8.328125 L 54.9375 -27.703125 L 24.15625 -27.703125 L 16.53125 -8.203125 C 16.21875 -7.296875 16.0625 -6.40625 16.0625 -5.53125 C 16.0625 -4.65625 16.460938 -3.703125 17.265625 -2.671875 C 18.066406 -1.648438 19.265625 -1.140625 20.859375 -1.140625 L 21.890625 -1.140625 L 21.890625 0 L -1.03125 0 L -1.03125 -1.140625 L 0 -1.140625 C 1.894531 -1.140625 3.753906 -1.742188 5.578125 -2.953125 C 7.398438 -4.171875 8.882812 -5.960938 10.03125 -8.328125 L 35.796875 -69.65625 C 38.609375 -75.8125 40.015625 -79.722656 40.015625 -81.390625 L 41.03125 -81.390625 L 71.59375 -8.328125 C 72.65625 -5.960938 74.097656 -4.171875 75.921875 -2.953125 C 77.742188 -1.742188 79.644531 -1.140625 81.625 -1.140625 Z M 25.53125 -31.125 L 53.578125 -31.125 L 39.890625 -67.71875 Z M 25.53125 -31.125 "/></g></g></g><g fill="#000000" fill-opacity="1"><g transform="translate(661.949066, 259.198132)"><g><path d="M 113.203125 -78.65625 L 112.28125 -78.65625 C 109.46875 -78.65625 107 -77.628906 104.875 -75.578125 C 103.65625 -74.515625 102.78125 -73.1875 102.25 -71.59375 L 83.328125 -11.28125 C 81.804688 -6.5 80.972656 -2.28125 80.828125 1.375 L 79.796875 1.375 L 56.546875 -63.84375 L 39.21875 -11.28125 C 37.769531 -6.570312 36.96875 -2.351562 36.8125 1.375 L 35.796875 1.375 L 9.90625 -71.703125 C 9 -73.984375 7.59375 -75.710938 5.6875 -76.890625 C 3.789062 -78.066406 1.851562 -78.65625 -0.125 -78.65625 L -1.03125 -78.65625 L -1.03125 -79.796875 L 24.28125 -79.796875 L 24.28125 -78.65625 L 23.25 -78.65625 C 21.65625 -78.65625 20.457031 -78.140625 19.65625 -77.109375 C 18.863281 -76.085938 18.46875 -75.117188 18.46875 -74.203125 C 18.46875 -73.296875 18.582031 -72.460938 18.8125 -71.703125 L 36.140625 -16.1875 L 57.34375 -81.625 L 58.359375 -81.515625 L 80.828125 -18.46875 L 96.09375 -71.8125 C 96.320312 -72.65625 96.4375 -73.515625 96.4375 -74.390625 C 96.4375 -75.265625 96.054688 -76.191406 95.296875 -77.171875 C 94.535156 -78.160156 93.359375 -78.65625 91.765625 -78.65625 L 90.734375 -78.65625 L 90.734375 -79.796875 L 113.203125 -79.796875 Z M 113.203125 -78.65625 "/></g></g></g><g fill="#000000" fill-opacity="1"><g transform="translate(773.890952, 259.198132)"><g/></g></g><g fill="#000000" fill-opacity="1"><g transform="translate(802.389375, 259.198132)"><g><path d="M 102.59375 -1.140625 L 104.421875 -1.140625 L 104.421875 0 L 79.6875 0 L 79.6875 -1.03125 L 81.390625 -1.03125 C 82.679688 -1.03125 83.78125 -1.539062 84.6875 -2.5625 C 85.601562 -3.59375 85.988281 -4.710938 85.84375 -5.921875 L 80.71875 -63.265625 L 56.765625 -10.03125 C 54.640625 -5.394531 53.347656 -1.519531 52.890625 1.59375 L 51.75 1.59375 L 22.578125 -61.671875 L 17.671875 -5.921875 C 17.515625 -4.710938 17.890625 -3.59375 18.796875 -2.5625 C 19.710938 -1.539062 20.78125 -1.03125 22 -1.03125 L 23.828125 -1.03125 L 23.828125 0 L 1.703125 0 L 1.703125 -1.140625 L 3.53125 -1.140625 C 5.65625 -1.140625 7.5 -1.785156 9.0625 -3.078125 C 10.625 -4.367188 11.554688 -6.117188 11.859375 -8.328125 L 20.40625 -81.390625 L 21.546875 -81.390625 L 53.359375 -12.65625 L 84.46875 -81.390625 L 85.5 -81.390625 L 94.28125 -8.328125 C 94.65625 -5.285156 96.175781 -3.15625 98.84375 -1.9375 C 99.976562 -1.40625 101.226562 -1.140625 102.59375 -1.140625 Z M 102.59375 -1.140625 "/></g></g></g><g fill="#000000" fill-opacity="1"><g transform="translate(908.51755, 259.198132)"><g><path d="M 8.328125 -1.140625 C 10.296875 -1.140625 11.984375 -1.84375 13.390625 -3.25 C 14.796875 -4.65625 15.539062 -6.347656 15.625 -8.328125 L 15.625 -72.15625 C 15.394531 -73.976562 14.59375 -75.515625 13.21875 -76.765625 C 11.851562 -78.023438 10.222656 -78.65625 8.328125 -78.65625 L 6.953125 -78.65625 L 6.84375 -79.796875 L 40.234375 -79.796875 C 42.597656 -79.796875 45.164062 -80.023438 47.9375 -80.484375 C 50.707031 -80.941406 52.664062 -81.398438 53.8125 -81.859375 L 53.8125 -67.484375 L 52.671875 -67.484375 L 52.671875 -69.546875 C 52.671875 -71.367188 52.039062 -72.925781 50.78125 -74.21875 C 49.53125 -75.507812 48.03125 -76.191406 46.28125 -76.265625 L 23.03125 -76.265625 L 23.03125 -41.046875 L 42.296875 -41.046875 C 43.816406 -41.117188 45.109375 -41.6875 46.171875 -42.75 C 47.234375 -43.8125 47.765625 -45.140625 47.765625 -46.734375 L 47.765625 -48.34375 L 48.90625 -48.34375 L 48.90625 -30.328125 L 47.765625 -30.328125 L 47.765625 -32.03125 C 47.765625 -33.550781 47.25 -34.84375 46.21875 -35.90625 C 45.195312 -36.96875 43.925781 -37.539062 42.40625 -37.625 L 23.03125 -37.625 L 23.03125 -3.53125 L 39.328125 -3.53125 C 44.953125 -3.53125 49.242188 -4.785156 52.203125 -7.296875 C 55.171875 -9.804688 57.644531 -13.53125 59.625 -18.46875 L 60.765625 -18.46875 L 54.15625 0 L 6.84375 0 L 6.84375 -1.140625 Z M 8.328125 -1.140625 "/></g></g></g><g fill="#000000" fill-opacity="1"><g transform="translate(974.291928, 259.198132)"><g><path d="M 30.328125 -76.265625 L 23.03125 -76.265625 L 23.03125 -8.328125 C 23.03125 -6.347656 23.734375 -4.65625 25.140625 -3.25 C 26.546875 -1.84375 28.273438 -1.140625 30.328125 -1.140625 L 31.6875 -1.140625 L 31.8125 0 L 6.84375 0 L 6.84375 -1.140625 L 8.328125 -1.140625 C 10.296875 -1.140625 11.984375 -1.820312 13.390625 -3.1875 C 14.796875 -4.5625 15.539062 -6.234375 15.625 -8.203125 L 15.625 -71.484375 C 15.539062 -73.453125 14.796875 -75.140625 13.390625 -76.546875 C 11.984375 -77.953125 10.296875 -78.65625 8.328125 -78.65625 L 6.84375 -78.65625 L 6.84375 -79.796875 L 37.625 -79.796875 C 44.539062 -79.796875 49.972656 -77.875 53.921875 -74.03125 C 57.867188 -70.195312 59.84375 -65.222656 59.84375 -59.109375 C 59.84375 -52.992188 57.960938 -47.710938 54.203125 -43.265625 C 50.441406 -38.816406 45.863281 -36.59375 40.46875 -36.59375 C 41.613281 -36.0625 42.960938 -35.015625 44.515625 -33.453125 C 46.078125 -31.898438 47.460938 -30.285156 48.671875 -28.609375 C 55.210938 -19.265625 59.46875 -13.507812 61.4375 -11.34375 C 63.414062 -9.175781 64.820312 -7.691406 65.65625 -6.890625 C 66.5 -6.097656 67.410156 -5.320312 68.390625 -4.5625 C 69.378906 -3.800781 70.367188 -3.191406 71.359375 -2.734375 C 73.566406 -1.671875 75.925781 -1.140625 78.4375 -1.140625 L 78.4375 0 L 72.15625 0 C 68.894531 0 65.859375 -0.585938 63.046875 -1.765625 C 60.234375 -2.941406 58.125 -4.15625 56.71875 -5.40625 C 55.3125 -6.664062 54.09375 -7.882812 53.0625 -9.0625 C 52.039062 -10.238281 49.210938 -14.171875 44.578125 -20.859375 C 39.941406 -27.546875 37.242188 -31.363281 36.484375 -32.3125 C 35.722656 -33.269531 34.925781 -34.203125 34.09375 -35.109375 C 31.65625 -37.691406 29.222656 -38.984375 26.796875 -38.984375 L 26.796875 -40.125 C 27.398438 -40.050781 28.195312 -40.015625 29.1875 -40.015625 C 30.175781 -40.015625 31.390625 -40.050781 32.828125 -40.125 C 42.253906 -40.351562 48.179688 -44.304688 50.609375 -51.984375 C 51.066406 -53.503906 51.296875 -54.925781 51.296875 -56.25 C 51.296875 -57.582031 51.296875 -58.441406 51.296875 -58.828125 C 51.148438 -63.921875 49.820312 -68.023438 47.3125 -71.140625 C 44.800781 -74.253906 41.414062 -75.925781 37.15625 -76.15625 C 35.332031 -76.226562 33.054688 -76.265625 30.328125 -76.265625 Z M 30.328125 -76.265625 "/></g></g></g><g fill="#000000" fill-opacity="1"><g transform="translate(1051.465693, 259.198132)"><g><path d="M 47.53125 1.59375 C 35.53125 1.519531 25.75 -2.3125 18.1875 -9.90625 C 10.625 -17.507812 6.84375 -27.523438 6.84375 -39.953125 C 6.84375 -52.378906 10.625 -62.390625 18.1875 -69.984375 C 25.75 -77.585938 35.757812 -81.390625 48.21875 -81.390625 C 58.40625 -81.390625 67.410156 -78.804688 75.234375 -73.640625 L 77.515625 -57.5625 L 76.5 -57.5625 C 74.820312 -64.101562 71.4375 -69.140625 66.34375 -72.671875 C 61.25 -76.203125 55.207031 -77.96875 48.21875 -77.96875 C 38.257812 -77.96875 30.296875 -74.507812 24.328125 -67.59375 C 18.367188 -60.6875 15.390625 -51.53125 15.390625 -40.125 C 15.390625 -28.726562 18.332031 -19.550781 24.21875 -12.59375 C 30.113281 -5.644531 37.882812 -2.054688 47.53125 -1.828125 C 56.050781 -1.828125 63.160156 -4.144531 68.859375 -8.78125 C 75.015625 -13.789062 78.738281 -21.957031 80.03125 -33.28125 L 80.9375 -33.28125 L 79.578125 -15.390625 C 72.660156 -4.066406 61.976562 1.59375 47.53125 1.59375 Z M 47.53125 1.59375 "/></g></g></g><g fill="#000000" fill-opacity="1"><g transform="translate(1138.100972, 259.198132)"><g><path d="M 62.359375 -1.140625 C 64.335938 -1.140625 66.03125 -1.820312 67.4375 -3.1875 C 68.84375 -4.5625 69.582031 -6.234375 69.65625 -8.203125 L 69.65625 -37.734375 L 23.03125 -37.734375 L 23.03125 -8.328125 C 23.03125 -6.347656 23.75 -4.65625 25.1875 -3.25 C 26.632812 -1.84375 28.347656 -1.140625 30.328125 -1.140625 L 31.8125 -1.140625 L 31.8125 0 L 6.84375 0 L 6.84375 -1.140625 L 8.328125 -1.140625 C 10.296875 -1.140625 11.984375 -1.84375 13.390625 -3.25 C 14.796875 -4.65625 15.539062 -6.347656 15.625 -8.328125 L 15.625 -71.59375 C 15.539062 -73.570312 14.796875 -75.242188 13.390625 -76.609375 C 11.984375 -77.972656 10.296875 -78.65625 8.328125 -78.65625 L 6.84375 -78.65625 L 6.84375 -79.796875 L 31.8125 -79.796875 L 31.8125 -78.65625 L 30.328125 -78.65625 C 28.347656 -78.65625 26.65625 -77.972656 25.25 -76.609375 C 23.84375 -75.242188 23.101562 -73.570312 23.03125 -71.59375 L 23.03125 -41.15625 L 69.65625 -41.15625 L 69.65625 -71.59375 C 69.582031 -74.332031 68.363281 -76.382812 66 -77.75 C 64.863281 -78.351562 63.648438 -78.65625 62.359375 -78.65625 L 60.875 -78.65625 L 60.875 -79.796875 L 85.84375 -79.796875 L 85.84375 -78.65625 L 84.359375 -78.65625 C 82.378906 -78.65625 80.6875 -77.953125 79.28125 -76.546875 C 77.875 -75.140625 77.132812 -73.453125 77.0625 -71.484375 L 77.0625 -8.328125 C 77.132812 -6.347656 77.875 -4.65625 79.28125 -3.25 C 80.6875 -1.84375 82.378906 -1.140625 84.359375 -1.140625 L 85.84375 -1.140625 L 85.84375 0 L 60.875 0 L 60.875 -1.140625 Z M 62.359375 -1.140625 "/></g></g></g><g fill="#000000" fill-opacity="1"><g transform="translate(1230.777911, 259.198132)"><g><path d="M 81.625 -1.140625 L 82.53125 -1.140625 L 82.53125 0 L 56.875 0 L 56.875 -1.140625 L 57.90625 -1.140625 C 59.5 -1.140625 60.695312 -1.648438 61.5 -2.671875 C 62.300781 -3.703125 62.703125 -4.671875 62.703125 -5.578125 C 62.703125 -6.492188 62.546875 -7.410156 62.234375 -8.328125 L 54.9375 -27.703125 L 24.15625 -27.703125 L 16.53125 -8.203125 C 16.21875 -7.296875 16.0625 -6.40625 16.0625 -5.53125 C 16.0625 -4.65625 16.460938 -3.703125 17.265625 -2.671875 C 18.066406 -1.648438 19.265625 -1.140625 20.859375 -1.140625 L 21.890625 -1.140625 L 21.890625 0 L -1.03125 0 L -1.03125 -1.140625 L 0 -1.140625 C 1.894531 -1.140625 3.753906 -1.742188 5.578125 -2.953125 C 7.398438 -4.171875 8.882812 -5.960938 10.03125 -8.328125 L 35.796875 -69.65625 C 38.609375 -75.8125 40.015625 -79.722656 40.015625 -81.390625 L 41.03125 -81.390625 L 71.59375 -8.328125 C 72.65625 -5.960938 74.097656 -4.171875 75.921875 -2.953125 C 77.742188 -1.742188 79.644531 -1.140625 81.625 -1.140625 Z M 25.53125 -31.125 L 53.578125 -31.125 L 39.890625 -67.71875 Z M 25.53125 -31.125 "/></g></g></g><g fill="#000000" fill-opacity="1"><g transform="translate(1311.941444, 259.198132)"><g><path d="M 88.6875 -78.65625 C 86.789062 -78.65625 85.15625 -77.988281 83.78125 -76.65625 C 82.414062 -75.332031 81.695312 -73.71875 81.625 -71.8125 L 81.625 -13 C 81.625 -8.59375 81.890625 -4.410156 82.421875 -0.453125 L 82.65625 1.59375 L 81.625 1.59375 L 19.5 -64.75 L 19.5 -7.984375 C 19.570312 -5.316406 20.75 -3.335938 23.03125 -2.046875 C 24.09375 -1.441406 25.234375 -1.140625 26.453125 -1.140625 L 28.609375 -1.140625 L 28.609375 0 L 5.125 0 L 5.125 -1.140625 L 7.296875 -1.140625 C 9.191406 -1.140625 10.820312 -1.800781 12.1875 -3.125 C 13.5625 -4.457031 14.25 -6.113281 14.25 -8.09375 L 14.25 -67.265625 C 14.25 -71.898438 13.984375 -76.039062 13.453125 -79.6875 L 13.21875 -81.515625 L 14.359375 -81.515625 L 76.5 -15.15625 L 76.5 -71.703125 C 76.414062 -73.679688 75.691406 -75.332031 74.328125 -76.65625 C 72.960938 -77.988281 71.328125 -78.65625 69.421875 -78.65625 L 67.265625 -78.65625 L 67.265625 -79.796875 L 90.75 -79.796875 L 90.75 -78.65625 Z M 88.6875 -78.65625 "/></g></g></g><g fill="#000000" fill-opacity="1"><g transform="translate(1407.810155, 259.198132)"><g><path d="M 67.140625 -69.65625 C 67.140625 -71.476562 66.492188 -73.050781 65.203125 -74.375 C 63.910156 -75.707031 62.390625 -76.414062 60.640625 -76.5 L 38.984375 -76.5 L 38.984375 -8.203125 C 39.066406 -6.234375 39.804688 -4.5625 41.203125 -3.1875 C 42.609375 -1.820312 44.300781 -1.140625 46.28125 -1.140625 L 47.765625 -1.140625 L 47.765625 0 L 22.796875 0 L 22.796875 -1.140625 L 24.28125 -1.140625 C 26.257812 -1.140625 27.953125 -1.820312 29.359375 -3.1875 C 30.765625 -4.5625 31.503906 -6.195312 31.578125 -8.09375 L 31.578125 -76.5 L 9.921875 -76.5 C 8.097656 -76.414062 6.554688 -75.707031 5.296875 -74.375 C 4.046875 -73.050781 3.421875 -71.476562 3.421875 -69.65625 L 3.421875 -67.71875 L 2.28125 -67.609375 L 2.28125 -81.96875 C 3.414062 -81.507812 5.390625 -81.050781 8.203125 -80.59375 C 11.015625 -80.132812 13.597656 -79.90625 15.953125 -79.90625 L 54.484375 -79.90625 C 58.210938 -79.90625 61.3125 -80.191406 63.78125 -80.765625 C 66.25 -81.335938 67.75 -81.738281 68.28125 -81.96875 L 68.28125 -67.609375 L 67.140625 -67.71875 Z M 67.140625 -69.65625 "/></g></g></g><path stroke-linecap="round" transform="matrix(0.000000001309, -0.75, 0.75, 0.000000001309, 480.191558, 433.450742)" fill="none" stroke-linejoin="miter" d="M 3.002032 2.999798 L 551.080199 2.999797 " stroke="#000000" stroke-width="6" stroke-opacity="1" stroke-miterlimit="4"/></svg>